<svg width="500" height="500" viewBox="0 0 500 500" fill="none" xmlns="http://www.w3.org/2000/svg">
<path d="M250 497C386.414 497 497 386.414 497 250C497 113.586 386.414 3 250 3C113.586 3 3 113.586 3 250C3 386.414 113.586 497 250 497Z" fill="black" stroke="black" stroke-width="3"/>
<path d="M251 402C334.395 402 402 334.395 402 251C402 167.605 334.395 100 251 100C167.605 100 100 167.605 100 251C100 334.395 167.605 402 251 402Z" fill="#F4F4F4"/>
<path d="M312.569 270.196L296.362 298.842L373.543 342.507L389.749 313.861L312.569 270.196Z" fill="#88C6EE"/>
<path d="M120.904 169.066L104.697 197.712L180.451 240.57L196.658 211.924L120.904 169.066Z" fill="#88C6EE"/>
<path d="M266.503 315.768L233.614 314.506L230.201 403.5L263.089 404.762L266.503 315.768Z" fill="#88C6EE"/>
<path d="M268.515 97.4705L235.627 96.209L232.23 184.778L265.118 186.04L268.515 97.4705Z" fill="#88C6EE"/>
<path d="M295.577 203.306L312.394 231.598L391.478 184.591L374.661 156.299L295.577 203.306Z" fill="#88C6EE"/>
<path d="M111.787 319.943L128.604 348.235L204.254 303.269L187.438 274.977L111.787 319.943Z" fill="#88C6EE"/>
<path d="M250 320C288.66 320 320 288.66 320 250C320 211.34 288.66 180 250 180C211.34 180 180 211.34 180 250C180 288.66 211.34 320 250 320Z" fill="black"/>
<path d="M250 277C264.912 277 277 264.912 277 250C277 235.088 264.912 223 250 223C235.088 223 223 235.088 223 250C223 264.912 235.088 277 250 277Z" fill="#F4F4F4" stroke="#F4F4F4" stroke-width="3"/>
<path d="M251 413C340.47 413 413 340.47 413 251C413 161.53 340.47 89 251 89C161.53 89 89 161.53 89 251C89 340.47 161.53 413 251 413Z" stroke="#F4F4F4" stroke-width="5"/>
<path d="M250 403C334.5 403 403 334.5 403 250C403 165.5 334.5 97 250 97C165.5 97 97 165.5 97 250C97 334.5 165.5 403 250 403Z" stroke="black" stroke-width="7"/>
</svg>
